<svg width="144" height="56" viewBox="0 0 144 56" fill="none" xmlns="http://www.w3.org/2000/svg">
<g clip-path="url(#clip0_5_11)">
<path d="M136 0H8C3.58172 0 0 3.58172 0 8V48C0 52.4183 3.58172 56 8 56H136C140.418 56 144 52.4183 144 48V8C144 3.58172 140.418 0 136 0Z" fill="url(#paint0_linear_5_11)"/>
<path d="M136 1.04988H7.99994C4.16156 1.04988 1.04994 4.1615 1.04994 7.99988V47.9999C1.04994 51.8383 4.16156 54.9499 7.99994 54.9499H136C139.838 54.9499 142.95 51.8383 142.95 47.9999V7.99988C142.95 4.1615 139.838 1.04988 136 1.04988Z" stroke="white" stroke-opacity="0.15" stroke-width="2.1"/>
<g filter="url(#filter0_d_5_11)">
<path d="M31.7618 8.00021C30.1125 8.00779 28.5373 8.14692 27.1514 8.38948C23.0686 9.10289 22.3273 10.5961 22.3273 13.3499V16.9868H31.9755V18.1992H22.3273H18.7065C15.9025 18.1992 13.4472 19.8661 12.6792 23.0373C11.7934 26.6721 11.7541 28.9403 12.6792 32.7357C13.365 35.5608 15.0029 37.5738 17.8069 37.5738H21.1241V33.214C21.1241 30.0642 23.8795 27.2859 27.1514 27.2859H36.7883C39.4709 27.2859 41.6124 25.1013 41.6124 22.4367V13.3499C41.6124 10.7638 39.4066 8.82109 36.7883 8.38948C35.1309 8.1166 33.4112 7.99262 31.7618 8.00021ZM26.5442 10.9253C27.5408 10.9253 28.3546 11.7434 28.3546 12.7493C28.3546 13.7517 27.5408 14.5622 26.5442 14.5622C25.544 14.5622 24.7338 13.7517 24.7338 12.7493C24.7338 11.7434 25.544 10.9253 26.5442 10.9253Z" fill="url(#paint1_linear_5_11)"/>
<path d="M42.8156 18.1992V22.4367C42.8156 25.722 39.9995 28.4871 36.7883 28.4871H27.1514C24.5117 28.4871 22.3273 30.7217 22.3273 33.3364V42.4231C22.3273 45.0092 24.601 46.5304 27.1514 47.2723C30.2055 48.1605 33.1341 48.3211 36.7883 47.2723C39.2173 46.5768 41.6124 45.1769 41.6124 42.4231V38.7862H31.9755V37.5739H41.6124H46.4364C49.2405 37.5739 50.2853 35.6394 51.2605 32.7358C52.2678 29.7466 52.2249 26.8719 51.2605 23.0373C50.5675 20.2764 49.244 18.1992 46.4364 18.1992H42.8156ZM37.3955 41.2108C38.3957 41.2108 39.206 42.0214 39.206 43.0237C39.206 44.0296 38.3957 44.8477 37.3955 44.8477C36.3989 44.8477 35.5851 44.0296 35.5851 43.0237C35.5851 42.0214 36.3989 41.2108 37.3955 41.2108Z" fill="url(#paint2_linear_5_11)"/>
</g>
<g filter="url(#filter1_d_5_11)">
<path d="M60.9357 43.4999V31.1362H66.0429C66.9686 31.1362 67.7675 31.3173 68.4396 31.6796C69.1157 32.0378 69.6369 32.5388 70.0031 33.1828C70.3694 33.8227 70.5525 34.5672 70.5525 35.4164C70.5525 36.2696 70.3653 37.0162 69.9911 37.6561C69.6208 38.292 69.0916 38.785 68.4033 39.1352C67.7151 39.4853 66.8981 39.6604 65.9524 39.6604H62.8011V37.306H65.397C65.8477 37.306 66.224 37.2275 66.5259 37.0705C66.8317 36.9136 67.0631 36.6942 67.2201 36.4125C67.3771 36.1268 67.4555 35.7947 67.4555 35.4164C67.4555 35.0341 67.3771 34.7041 67.2201 34.4264C67.0631 34.1446 66.8317 33.9273 66.5259 33.7744C66.22 33.6214 65.8437 33.545 65.397 33.545H63.9239V43.4999H60.9357ZM73.8305 46.9771C73.4764 46.9771 73.1423 46.949 72.8284 46.8926C72.5145 46.8403 72.2448 46.7699 72.0195 46.6813L72.6715 44.5382C72.9612 44.6348 73.2228 44.6912 73.4563 44.7073C73.6937 44.7234 73.897 44.6851 74.066 44.5926C74.239 44.504 74.3719 44.345 74.4644 44.1156L74.5791 43.8379L71.283 34.2271H74.3739L76.0823 40.8436H76.1789L77.9115 34.2271H81.0205L77.5251 44.3873C77.3561 44.8944 77.1166 45.3411 76.8068 45.7275C76.5009 46.1179 76.1045 46.4238 75.6175 46.6451C75.1345 46.8665 74.5389 46.9771 73.8305 46.9771ZM87.3865 34.2271V36.4004H81.5367V34.2271H87.3865ZM82.7622 32.0056H85.7142V40.584C85.7142 40.7651 85.7424 40.912 85.7988 41.0247C85.8591 41.1334 85.9457 41.2119 86.0583 41.2602C86.171 41.3044 86.3059 41.3266 86.4628 41.3266C86.5755 41.3266 86.6942 41.3165 86.819 41.2964C86.9478 41.2722 87.0444 41.2521 87.1088 41.236L87.5555 43.3671C87.4146 43.4073 87.2154 43.4576 86.9579 43.518C86.7043 43.5784 86.4004 43.6166 86.0463 43.6327C85.354 43.6649 84.7604 43.5844 84.2654 43.3912C83.7744 43.194 83.3981 42.8881 83.1365 42.4736C82.8789 42.0591 82.7541 41.5379 82.7622 40.91V32.0056ZM92.044 38.2115V43.4999H89.0919V31.1362H91.9474V35.9296H92.05C92.2593 35.3581 92.6014 34.9113 93.0763 34.5894C93.5552 34.2674 94.1408 34.1064 94.833 34.1064C95.485 34.1064 96.0525 34.2513 96.5354 34.5411C97.0184 34.8268 97.3927 35.2313 97.6583 35.7545C97.928 36.2777 98.0608 36.8894 98.0567 37.5897V43.4999H95.1047V38.1693C95.1087 37.6541 94.9799 37.2517 94.7183 36.9619C94.4567 36.6721 94.0885 36.5272 93.6136 36.5272C93.3037 36.5272 93.03 36.5956 92.7925 36.7325C92.5591 36.8653 92.376 37.0565 92.2432 37.306C92.1144 37.5555 92.048 37.8574 92.044 38.2115ZM104.228 43.6749C103.254 43.6749 102.417 43.4757 101.717 43.0773C101.02 42.6748 100.483 42.1154 100.105 41.399C99.7305 40.6786 99.5433 39.8435 99.5433 38.8937C99.5433 37.9399 99.7305 37.1048 100.105 36.3884C100.483 35.668 101.02 35.1085 101.717 34.7101C102.417 34.3076 103.254 34.1064 104.228 34.1064C105.202 34.1064 106.037 34.3076 106.733 34.7101C107.434 35.1085 107.971 35.668 108.345 36.3884C108.723 37.1048 108.913 37.9399 108.913 38.8937C108.913 39.8435 108.723 40.6786 108.345 41.399C107.971 42.1154 107.434 42.6748 106.733 43.0773C106.037 43.4757 105.202 43.6749 104.228 43.6749ZM104.246 41.4473C104.6 41.4473 104.9 41.3387 105.146 41.1213C105.391 40.904 105.578 40.6021 105.707 40.2158C105.84 39.8294 105.906 39.3827 105.906 38.8756C105.906 38.3604 105.84 37.9097 105.707 37.5233C105.578 37.1369 105.391 36.8351 105.146 36.6178C104.9 36.4004 104.6 36.2918 104.246 36.2918C103.88 36.2918 103.57 36.4004 103.316 36.6178C103.067 36.8351 102.876 37.1369 102.743 37.5233C102.614 37.9097 102.55 38.3604 102.55 38.8756C102.55 39.3827 102.614 39.8294 102.743 40.2158C102.876 40.6021 103.067 40.904 103.316 41.1213C103.57 41.3387 103.88 41.4473 104.246 41.4473ZM113.377 38.2115V43.4999H110.425V34.2271H113.232V35.9296H113.335C113.54 35.3621 113.89 34.9174 114.385 34.5954C114.88 34.2694 115.47 34.1064 116.154 34.1064C116.806 34.1064 117.371 34.2533 117.85 34.5471C118.333 34.8369 118.708 35.2434 118.973 35.7666C119.243 36.2857 119.376 36.8935 119.372 37.5897V43.4999H116.42V38.1693C116.424 37.6541 116.293 37.2517 116.027 36.9619C115.766 36.6721 115.401 36.5272 114.934 36.5272C114.625 36.5272 114.351 36.5956 114.113 36.7325C113.88 36.8653 113.699 37.0565 113.57 37.306C113.445 37.5555 113.381 37.8574 113.377 38.2115Z" fill="white"/>
</g>
<path d="M67.8068 14.2159C67.7462 13.678 67.4962 13.2614 67.0568 12.9659C66.6174 12.6667 66.0644 12.517 65.3977 12.517C64.9205 12.517 64.5076 12.5928 64.1591 12.7443C63.8106 12.892 63.5398 13.0966 63.3466 13.358C63.1572 13.6155 63.0625 13.9091 63.0625 14.2386C63.0625 14.5152 63.1269 14.7538 63.2557 14.9545C63.3883 15.1553 63.5606 15.3239 63.7727 15.4602C63.9886 15.5928 64.2197 15.7045 64.4659 15.7955C64.7121 15.8826 64.9489 15.9545 65.1761 16.0114L66.3125 16.3068C66.6837 16.3977 67.0644 16.5208 67.4545 16.6761C67.8447 16.8314 68.2064 17.036 68.5398 17.2898C68.8731 17.5436 69.142 17.858 69.3466 18.233C69.5549 18.608 69.6591 19.0568 69.6591 19.5795C69.6591 20.2386 69.4886 20.8239 69.1477 21.3352C68.8106 21.8466 68.3201 22.25 67.6761 22.5455C67.036 22.8409 66.2614 22.9886 65.3523 22.9886C64.4811 22.9886 63.7273 22.8504 63.0909 22.5739C62.4545 22.2973 61.9564 21.9053 61.5966 21.3977C61.2367 20.8864 61.0379 20.2803 61 19.5795H62.7614C62.7955 20 62.9318 20.3504 63.1705 20.6307C63.4129 20.9072 63.7216 21.1136 64.0966 21.25C64.4754 21.3826 64.8902 21.4489 65.3409 21.4489C65.8371 21.4489 66.2784 21.3712 66.6648 21.2159C67.0549 21.0568 67.3617 20.8371 67.5852 20.5568C67.8087 20.2727 67.9205 19.9413 67.9205 19.5625C67.9205 19.2178 67.822 18.9356 67.625 18.7159C67.4318 18.4962 67.1686 18.3144 66.8352 18.1705C66.5057 18.0265 66.1326 17.8996 65.7159 17.7898L64.3409 17.4148C63.4091 17.161 62.6705 16.7879 62.125 16.2955C61.5833 15.803 61.3125 15.1515 61.3125 14.3409C61.3125 13.6705 61.4943 13.0852 61.858 12.5852C62.2216 12.0852 62.714 11.697 63.3352 11.4205C63.9564 11.1402 64.6572 11 65.4375 11C66.2254 11 66.9205 11.1383 67.5227 11.4148C68.1288 11.6913 68.6061 12.072 68.9545 12.5568C69.303 13.0379 69.4848 13.5909 69.5 14.2159H67.8068Z" fill="#E8E8E8"/>
<path d="M77.1491 19.1761V14.0682H78.8537V22.7955H77.1832V21.2841H77.0923C76.8916 21.75 76.5696 22.1383 76.1264 22.4489C75.687 22.7557 75.1397 22.9091 74.4844 22.9091C73.9238 22.9091 73.4276 22.786 72.9957 22.5398C72.5677 22.2898 72.2306 21.9205 71.9844 21.4318C71.7419 20.9432 71.6207 20.339 71.6207 19.6193V14.0682H73.3196V19.4148C73.3196 20.0095 73.4844 20.483 73.8139 20.8352C74.1435 21.1875 74.5715 21.3636 75.098 21.3636C75.4162 21.3636 75.7325 21.2841 76.0469 21.125C76.3651 20.9659 76.6283 20.7254 76.8366 20.4034C77.0488 20.0814 77.1529 19.6723 77.1491 19.1761Z" fill="#E8E8E8"/>
<path d="M81.1364 26.0682V14.0682H82.7954V15.483H82.9375C83.036 15.3011 83.178 15.0909 83.3636 14.8523C83.5492 14.6136 83.8068 14.4053 84.1364 14.2273C84.4659 14.0455 84.9015 13.9545 85.4432 13.9545C86.1477 13.9545 86.7765 14.1326 87.3295 14.4886C87.8826 14.8447 88.3163 15.358 88.6307 16.0284C88.9489 16.6989 89.1079 17.5057 89.1079 18.4489C89.1079 19.392 88.9508 20.2008 88.6364 20.875C88.322 21.5455 87.8901 22.0625 87.3409 22.4261C86.7917 22.786 86.1648 22.9659 85.4602 22.9659C84.9299 22.9659 84.4962 22.8769 84.1591 22.6989C83.8258 22.5208 83.5644 22.3125 83.375 22.0739C83.1856 21.8352 83.0398 21.6231 82.9375 21.4375H82.8352V26.0682H81.1364ZM82.8011 18.4318C82.8011 19.0455 82.8901 19.5833 83.0682 20.0455C83.2462 20.5076 83.5038 20.8693 83.8409 21.1307C84.178 21.3883 84.5909 21.517 85.0795 21.517C85.5871 21.517 86.0114 21.3826 86.3523 21.1136C86.6932 20.8409 86.9508 20.4716 87.125 20.0057C87.303 19.5398 87.392 19.0151 87.392 18.4318C87.392 17.8561 87.3049 17.339 87.1307 16.8807C86.9602 16.4223 86.7026 16.0606 86.3579 15.7955C86.017 15.5303 85.5909 15.3977 85.0795 15.3977C84.5871 15.3977 84.1704 15.5246 83.8295 15.7784C83.4924 16.0322 83.2367 16.3864 83.0625 16.8409C82.8883 17.2955 82.8011 17.8258 82.8011 18.4318Z" fill="#E8E8E8"/>
<path d="M91.0114 26.0682V14.0682H92.6704V15.483H92.8125C92.911 15.3011 93.053 15.0909 93.2386 14.8523C93.4242 14.6136 93.6818 14.4053 94.0114 14.2273C94.3409 14.0455 94.7765 13.9545 95.3182 13.9545C96.0227 13.9545 96.6515 14.1326 97.2045 14.4886C97.7576 14.8447 98.1913 15.358 98.5057 16.0284C98.8239 16.6989 98.9829 17.5057 98.9829 18.4489C98.9829 19.392 98.8257 20.2008 98.5114 20.875C98.197 21.5455 97.7651 22.0625 97.2159 22.4261C96.6667 22.786 96.0398 22.9659 95.3352 22.9659C94.8049 22.9659 94.3712 22.8769 94.0341 22.6989C93.7007 22.5208 93.4394 22.3125 93.25 22.0739C93.0606 21.8352 92.9148 21.6231 92.8125 21.4375H92.7102V26.0682H91.0114ZM92.6761 18.4318C92.6761 19.0455 92.7651 19.5833 92.9432 20.0455C93.1212 20.5076 93.3788 20.8693 93.7159 21.1307C94.053 21.3883 94.4659 21.517 94.9545 21.517C95.4621 21.517 95.8864 21.3826 96.2273 21.1136C96.5682 20.8409 96.8257 20.4716 97 20.0057C97.178 19.5398 97.267 19.0151 97.267 18.4318C97.267 17.8561 97.1799 17.339 97.0057 16.8807C96.8352 16.4223 96.5776 16.0606 96.2329 15.7955C95.892 15.5303 95.4659 15.3977 94.9545 15.3977C94.4621 15.3977 94.0454 15.5246 93.7045 15.7784C93.3674 16.0322 93.1117 16.3864 92.9375 16.8409C92.7632 17.2955 92.6761 17.8258 92.6761 18.4318Z" fill="#E8E8E8"/>
<path d="M104.562 22.9716C103.744 22.9716 103.03 22.7841 102.42 22.4091C101.811 22.0341 101.337 21.5095 101 20.8352C100.663 20.161 100.494 19.3731 100.494 18.4716C100.494 17.5663 100.663 16.7746 101 16.0966C101.337 15.4186 101.811 14.892 102.42 14.517C103.03 14.142 103.744 13.9545 104.562 13.9545C105.381 13.9545 106.095 14.142 106.705 14.517C107.314 14.892 107.788 15.4186 108.125 16.0966C108.462 16.7746 108.631 17.5663 108.631 18.4716C108.631 19.3731 108.462 20.161 108.125 20.8352C107.788 21.5095 107.314 22.0341 106.705 22.4091C106.095 22.7841 105.381 22.9716 104.562 22.9716ZM104.568 21.5455C105.098 21.5455 105.538 21.4053 105.886 21.125C106.235 20.8447 106.492 20.4716 106.659 20.0057C106.83 19.5398 106.915 19.0265 106.915 18.4659C106.915 17.9091 106.83 17.3977 106.659 16.9318C106.492 16.4621 106.235 16.0852 105.886 15.8011C105.538 15.517 105.098 15.375 104.568 15.375C104.034 15.375 103.591 15.517 103.239 15.8011C102.89 16.0852 102.631 16.4621 102.46 16.9318C102.294 17.3977 102.21 17.9091 102.21 18.4659C102.21 19.0265 102.294 19.5398 102.46 20.0057C102.631 20.4716 102.89 20.8447 103.239 21.125C103.591 21.4053 104.034 21.5455 104.568 21.5455Z" fill="#E8E8E8"/>
<path d="M110.527 22.7955V14.0682H112.169V15.4545H112.26C112.419 14.9848 112.699 14.6155 113.101 14.3466C113.506 14.0739 113.964 13.9375 114.476 13.9375C114.582 13.9375 114.707 13.9413 114.851 13.9489C114.999 13.9564 115.114 13.9659 115.197 13.9773V15.6023C115.129 15.5833 115.008 15.5625 114.834 15.5398C114.66 15.5133 114.485 15.5 114.311 15.5C113.91 15.5 113.552 15.5852 113.237 15.7557C112.927 15.9223 112.68 16.1553 112.499 16.4545C112.317 16.75 112.226 17.0871 112.226 17.4659V22.7955H110.527Z" fill="#E8E8E8"/>
<path d="M121.257 14.0682V15.4318H116.49V14.0682H121.257ZM117.768 11.9773H119.467V20.233C119.467 20.5625 119.517 20.8106 119.615 20.9773C119.714 21.1401 119.84 21.2519 119.996 21.3125C120.155 21.3693 120.327 21.3977 120.513 21.3977C120.649 21.3977 120.768 21.3883 120.871 21.3693C120.973 21.3504 121.053 21.3352 121.109 21.3239L121.416 22.7273C121.318 22.7651 121.178 22.803 120.996 22.8409C120.814 22.8826 120.587 22.9053 120.314 22.9091C119.867 22.9167 119.45 22.8371 119.064 22.6705C118.678 22.5038 118.365 22.2462 118.126 21.8977C117.888 21.5492 117.768 21.1117 117.768 20.5852V11.9773Z" fill="#E8E8E8"/>
<path d="M129.535 16.1989L127.996 16.4716C127.931 16.2746 127.829 16.0871 127.689 15.9091C127.553 15.7311 127.367 15.5852 127.132 15.4716C126.897 15.358 126.604 15.3011 126.251 15.3011C125.77 15.3011 125.369 15.4091 125.047 15.625C124.725 15.8371 124.564 16.1117 124.564 16.4489C124.564 16.7405 124.672 16.9754 124.888 17.1534C125.104 17.3314 125.452 17.4773 125.933 17.5909L127.32 17.9091C128.123 18.0947 128.721 18.3807 129.115 18.767C129.509 19.1534 129.706 19.6553 129.706 20.2727C129.706 20.7955 129.554 21.2614 129.251 21.6705C128.952 22.0758 128.534 22.3939 127.996 22.625C127.462 22.8561 126.842 22.9716 126.138 22.9716C125.16 22.9716 124.363 22.7633 123.746 22.3466C123.128 21.9261 122.75 21.3295 122.609 20.5568L124.251 20.3068C124.354 20.7348 124.564 21.0587 124.882 21.2784C125.2 21.4943 125.615 21.6023 126.126 21.6023C126.683 21.6023 127.128 21.4867 127.462 21.2557C127.795 21.0208 127.962 20.7348 127.962 20.3977C127.962 20.125 127.859 19.8958 127.655 19.7102C127.454 19.5246 127.145 19.3845 126.729 19.2898L125.251 18.9659C124.437 18.7803 123.835 18.4848 123.445 18.0795C123.058 17.6742 122.865 17.161 122.865 16.5398C122.865 16.0246 123.009 15.5739 123.297 15.1875C123.585 14.8011 123.982 14.5 124.49 14.2841C124.998 14.0644 125.579 13.9545 126.234 13.9545C127.178 13.9545 127.92 14.1591 128.462 14.5682C129.003 14.9735 129.361 15.517 129.535 16.1989Z" fill="#E8E8E8"/>
</g>
<defs>
<filter id="filter0_d_5_11" x="6.28575" y="2.2856" width="51.4285" height="51.4286" filterUnits="userSpaceOnUse" color-interpolation-filters="sRGB">
<feFlood flood-opacity="0" result="BackgroundImageFix"/>
<feColorMatrix in="SourceAlpha" type="matrix" values="0 0 0 0 0 0 0 0 0 0 0 0 0 0 0 0 0 0 127 0" result="hardAlpha"/>
<feOffset/>
<feGaussianBlur stdDeviation="2.85714"/>
<feComposite in2="hardAlpha" operator="out"/>
<feColorMatrix type="matrix" values="0 0 0 0 0 0 0 0 0 0 0 0 0 0 0 0 0 0 0.25 0"/>
<feBlend mode="normal" in2="BackgroundImageFix" result="effect1_dropShadow_5_11"/>
<feBlend mode="normal" in="SourceGraphic" in2="effect1_dropShadow_5_11" result="shape"/>
</filter>
<filter id="filter1_d_5_11" x="55.3357" y="25.5362" width="69.6364" height="27.0409" filterUnits="userSpaceOnUse" color-interpolation-filters="sRGB">
<feFlood flood-opacity="0" result="BackgroundImageFix"/>
<feColorMatrix in="SourceAlpha" type="matrix" values="0 0 0 0 0 0 0 0 0 0 0 0 0 0 0 0 0 0 127 0" result="hardAlpha"/>
<feOffset/>
<feGaussianBlur stdDeviation="2.8"/>
<feComposite in2="hardAlpha" operator="out"/>
<feColorMatrix type="matrix" values="0 0 0 0 0 0 0 0 0 0 0 0 0 0 0 0 0 0 0.25 0"/>
<feBlend mode="normal" in2="BackgroundImageFix" result="effect1_dropShadow_5_11"/>
<feBlend mode="normal" in="SourceGraphic" in2="effect1_dropShadow_5_11" result="shape"/>
</filter>
<linearGradient id="paint0_linear_5_11" x1="23.0001" y1="0.000122674" x2="120" y2="56.0001" gradientUnits="userSpaceOnUse">
<stop stop-color="#152B3E"/>
<stop offset="1" stop-color="#282208"/>
</linearGradient>
<linearGradient id="paint1_linear_5_11" x1="12" y1="7.99988" x2="34.0416" y2="26.9898" gradientUnits="userSpaceOnUse">
<stop stop-color="#5A9FD4"/>
<stop offset="1" stop-color="#306998"/>
</linearGradient>
<linearGradient id="paint2_linear_5_11" x1="37.1637" y1="42.7179" x2="29.2978" y2="31.5738" gradientUnits="userSpaceOnUse">
<stop stop-color="#FFD43B"/>
<stop offset="1" stop-color="#FFE873"/>
</linearGradient>
<clipPath id="clip0_5_11">
<rect width="144" height="56" fill="white"/>
</clipPath>
</defs>
</svg>
